<svg width="96" height="96" viewBox="0 0 96 96" fill="none" xmlns="http://www.w3.org/2000/svg">
<path fill-rule="evenodd" clip-rule="evenodd" d="M32.4313 32.841L19.1108 40.5316V55.9128L32.4313 63.6034L45.7519 55.9128V40.5316L32.4313 32.841ZM49.7519 38.2222L32.4313 28.2222L15.1108 38.2222V58.2222L32.4313 68.2222L49.7519 58.2222V38.2222Z" fill="#8DEBCB"/>
<path fill-rule="evenodd" clip-rule="evenodd" d="M64.4313 32.841L51.1108 40.5316V55.9128L64.4313 63.6034L77.7519 55.9128V40.5316L64.4313 32.841ZM81.7519 38.2222L64.4313 28.2222L47.1108 38.2222V58.2222L64.4313 68.2222L81.7519 58.2222V38.2222Z" fill="#8DEBCB"/>
<path fill-rule="evenodd" clip-rule="evenodd" d="M34.4312 22.2222V30.2222H30.4312V22.2222H34.4312ZM66.4312 22.2222V30.2222H62.4312V22.2222H66.4312ZM30.4312 74.2222V66.2222H34.4312V74.2222H30.4312ZM62.4312 74.2222V66.2222H66.4312V74.2222H62.4312Z" fill="#8DEBCB"/>
<path fill-rule="evenodd" clip-rule="evenodd" d="M42.0311 42.6221V55.8221H38.8311V42.6221H42.0311Z" fill="#8DEBCB"/>
<path fill-rule="evenodd" clip-rule="evenodd" d="M74.9243 53.2318L63.5706 59.9652L61.9383 57.2129L73.292 50.4795L74.9243 53.2318Z" fill="#8DEBCB"/>
</svg>
