<svg width="200" height="60" viewBox="0 0 200 60" fill="none" xmlns="http://www.w3.org/2000/svg">
<path d="M61.2593 34.3111C61.2593 32.6222 61.5259 31.037 62.0593 29.5556C62.6222 28.0444 63.4222 26.7407 64.4593 25.6444C65.4963 24.5185 66.7556 23.6296 68.2371 22.9778C69.7185 22.3259 71.4074 22 73.3037 22C74.5482 22 75.6889 22.1185 76.7259 22.3556C77.763 22.563 78.7704 22.8741 79.7482 23.2889L78.3704 28.5778C77.7482 28.3407 77.0667 28.1333 76.3259 27.9556C75.5852 27.7778 74.7556 27.6889 73.8371 27.6889C71.8815 27.6889 70.4148 28.2963 69.4371 29.5111C68.4889 30.7259 68.0148 32.3259 68.0148 34.3111C68.0148 36.4148 68.4593 38.0444 69.3482 39.2C70.2667 40.3556 71.8519 40.9333 74.1037 40.9333C74.9037 40.9333 75.763 40.8593 76.6815 40.7111C77.6 40.563 78.4445 40.3259 79.2148 40L80.1482 45.4222C79.3778 45.7481 78.4148 46.0296 77.2593 46.2667C76.1037 46.5037 74.8296 46.6222 73.4371 46.6222C71.3037 46.6222 69.4667 46.3111 67.9259 45.6889C66.3852 45.037 65.1111 44.163 64.1037 43.0667C63.1259 41.9704 62.4 40.6815 61.9259 39.2C61.4815 37.6889 61.2593 36.0593 61.2593 34.3111ZM84.5926 46V12.5778L91.2148 11.5111V22.7111C91.6593 22.563 92.2222 22.4296 92.9037 22.3111C93.6148 22.163 94.2963 22.0889 94.9482 22.0889C96.8445 22.0889 98.4148 22.3556 99.6593 22.8889C100.933 23.3926 101.941 24.1185 102.681 25.0667C103.452 26.0148 103.985 27.1407 104.281 28.4444C104.607 29.7481 104.77 31.2 104.77 32.8V46H98.1482V33.6C98.1482 31.4667 97.8667 29.9556 97.3037 29.0667C96.7704 28.1778 95.763 27.7333 94.2815 27.7333C93.6889 27.7333 93.1259 27.7926 92.5926 27.9111C92.0889 28 91.6296 28.1037 91.2148 28.2222V46H84.5926ZM109.653 34.4889C109.653 32.4148 109.964 30.6074 110.587 29.0667C111.239 27.4963 112.083 26.1926 113.12 25.1556C114.157 24.1185 115.342 23.3333 116.676 22.8C118.039 22.2667 119.431 22 120.853 22C124.172 22 126.794 23.0222 128.72 25.0667C130.646 27.0815 131.609 30.0593 131.609 34C131.609 34.3852 131.594 34.8148 131.564 35.2889C131.535 35.7333 131.505 36.1333 131.476 36.4889H116.453C116.602 37.8519 117.239 38.9333 118.364 39.7333C119.49 40.5333 121.002 40.9333 122.898 40.9333C124.113 40.9333 125.298 40.8296 126.453 40.6222C127.639 40.3852 128.602 40.1037 129.342 39.7778L130.231 45.1556C129.876 45.3333 129.402 45.5111 128.809 45.6889C128.216 45.8667 127.55 46.0148 126.809 46.1333C126.098 46.2815 125.327 46.4 124.498 46.4889C123.668 46.5778 122.839 46.6222 122.009 46.6222C119.905 46.6222 118.068 46.3111 116.498 45.6889C114.957 45.0667 113.668 44.2222 112.631 43.1556C111.624 42.0593 110.868 40.7704 110.364 39.2889C109.89 37.8074 109.653 36.2074 109.653 34.4889ZM125.209 31.9556C125.179 31.3926 125.076 30.8444 124.898 30.3111C124.75 29.7778 124.498 29.3037 124.142 28.8889C123.816 28.4741 123.387 28.1333 122.853 27.8667C122.35 27.6 121.713 27.4667 120.942 27.4667C120.202 27.4667 119.564 27.6 119.031 27.8667C118.498 28.1037 118.053 28.4296 117.698 28.8444C117.342 29.2593 117.061 29.7481 116.853 30.3111C116.676 30.8444 116.542 31.3926 116.453 31.9556H125.209ZM149.564 33.6C149.564 31.4667 149.282 29.9556 148.719 29.0667C148.186 28.1778 147.253 27.7333 145.919 27.7333C145.505 27.7333 145.075 27.763 144.63 27.8222C144.186 27.8519 143.756 27.8963 143.342 27.9556V46H136.719V23.4222C137.282 23.2741 137.934 23.1259 138.675 22.9778C139.445 22.8 140.245 22.6519 141.075 22.5333C141.934 22.3852 142.808 22.2815 143.697 22.2222C144.586 22.1333 145.46 22.0889 146.319 22.0889C148.008 22.0889 149.371 22.3111 150.408 22.7556C151.475 23.1704 152.349 23.6741 153.03 24.2667C153.979 23.5852 155.06 23.0519 156.275 22.6667C157.519 22.2815 158.66 22.0889 159.697 22.0889C161.564 22.0889 163.09 22.3556 164.275 22.8889C165.49 23.3926 166.453 24.1185 167.164 25.0667C167.875 26.0148 168.364 27.1407 168.63 28.4444C168.897 29.7481 169.03 31.2 169.03 32.8V46H162.408V33.6C162.408 31.4667 162.127 29.9556 161.564 29.0667C161.03 28.1778 160.097 27.7333 158.764 27.7333C158.408 27.7333 157.905 27.8222 157.253 28C156.63 28.1778 156.112 28.4 155.697 28.6667C155.905 29.3481 156.038 30.0741 156.097 30.8444C156.156 31.5852 156.186 32.3852 156.186 33.2444V46H149.564V33.6ZM195.105 22.6222C193.772 27.1259 192.379 31.3481 190.927 35.2889C189.475 39.2296 187.89 43.0519 186.172 46.7556C185.55 48.0889 184.927 49.2148 184.305 50.1333C183.683 51.0815 183.001 51.8519 182.261 52.4444C181.52 53.0667 180.675 53.5111 179.727 53.7778C178.809 54.0741 177.727 54.2222 176.483 54.2222C175.446 54.2222 174.483 54.1185 173.594 53.9111C172.735 53.7333 172.024 53.5259 171.461 53.2889L172.616 48C173.298 48.237 173.905 48.4 174.438 48.4889C174.972 48.5778 175.535 48.6222 176.127 48.6222C177.313 48.6222 178.216 48.2963 178.838 47.6444C179.49 47.0222 180.038 46.1481 180.483 45.0222C178.972 42.0593 177.461 38.7407 175.95 35.0667C174.438 31.363 173.016 27.2148 171.683 22.6222H178.705C179.001 23.7778 179.342 25.037 179.727 26.4C180.142 27.7333 180.572 29.0963 181.016 30.4889C181.461 31.8519 181.905 33.1852 182.35 34.4889C182.824 35.7926 183.268 36.9778 183.683 38.0444C184.068 36.9778 184.468 35.7926 184.883 34.4889C185.298 33.1852 185.698 31.8519 186.083 30.4889C186.498 29.0963 186.883 27.7333 187.238 26.4C187.624 25.037 187.964 23.7778 188.261 22.6222H195.105Z" fill="white"/>
<path d="M0 5.92592C0 3.85166 0 2.81452 0.40368 2.02226C0.758766 1.32536 1.32536 0.758766 2.02226 0.40368C2.81452 0 3.85166 0 5.92593 0H53.3333C55.4076 0 56.4447 0 57.237 0.40368C57.9339 0.758766 58.5005 1.32536 58.8556 2.02226C59.2593 2.81452 59.2593 3.85166 59.2593 5.92593V29.6296C59.2593 40.001 59.2593 45.1866 57.2409 49.148C55.4654 52.6325 52.6325 55.4654 49.148 57.2409C45.1866 59.2593 40.001 59.2593 29.6296 59.2593H5.92592C3.85166 59.2593 2.81452 59.2593 2.02226 58.8556C1.32536 58.5005 0.758766 57.9339 0.40368 57.237C0 56.4447 0 55.4076 0 53.3333V5.92592Z" fill="url(#paint0_linear_54_182)"/>
<path d="M30.7605 46C30.4346 44.9333 30.0642 43.837 29.6494 42.7111C29.2642 41.5852 28.8791 40.4593 28.4939 39.3333H16.4939C16.1087 40.4593 15.7087 41.5852 15.2939 42.7111C14.9087 43.837 14.5531 44.9333 14.2272 46H7.0272C8.18275 42.6815 9.27905 39.6148 10.3161 36.8C11.3531 33.9852 12.3605 31.3333 13.3383 28.8444C14.3457 26.3556 15.3235 24 16.2716 21.7778C17.2494 19.5259 18.2568 17.3333 19.2939 15.2H25.9161C26.9235 17.3333 27.9161 19.5259 28.8939 21.7778C29.8716 24 30.8494 26.3556 31.8272 28.8444C32.8346 31.3333 33.8568 33.9852 34.8939 36.8C35.9309 39.6148 37.0272 42.6815 38.1828 46H30.7605ZM22.4494 22.1778C22.3013 22.6222 22.0791 23.2296 21.7828 24C21.4865 24.7704 21.1457 25.6593 20.7605 26.6667C20.3753 27.6741 19.9457 28.7852 19.4716 30C19.0272 31.2148 18.5679 32.4889 18.0939 33.8222H26.8494C26.3753 32.4889 25.9161 31.2148 25.4716 30C25.0272 28.7852 24.5976 27.6741 24.1828 26.6667C23.7976 25.6593 23.4568 24.7704 23.1605 24C22.8642 23.2296 22.6272 22.6222 22.4494 22.1778ZM51.0585 46.4444C49.1325 46.4148 47.5622 46.2074 46.3473 45.8222C45.1622 45.437 44.214 44.9037 43.5029 44.2222C42.8214 43.5111 42.3473 42.6667 42.0807 41.6889C41.8436 40.6815 41.7251 39.5556 41.7251 38.3111V12.5778L48.3473 11.5111V36.9778C48.3473 37.5704 48.3918 38.1037 48.4807 38.5778C48.5696 39.0519 48.7325 39.4519 48.9696 39.7778C49.2362 40.1037 49.6066 40.3704 50.0807 40.5778C50.5547 40.7852 51.1918 40.9185 51.9918 40.9778L51.0585 46.4444Z" fill="white"/>
<path d="M46.3083 5.63707C46.4516 5.57781 46.5997 5.51114 46.7528 5.43707C46.9108 5.35806 47.0639 5.27411 47.212 5.18522C47.3602 5.09139 47.5009 4.99509 47.6343 4.89633C47.7725 4.79262 47.896 4.68398 48.0046 4.5704H48.775V9.70374H47.6713V6.00744C47.5232 6.1062 47.3577 6.19756 47.175 6.28151C46.9923 6.36053 46.8145 6.42966 46.6417 6.48892L46.3083 5.63707ZM51.6888 9.81485C51.5554 9.81485 51.4147 9.80497 51.2666 9.78522C51.1184 9.7704 50.9752 9.74818 50.8369 9.71855C50.6987 9.68892 50.5727 9.65682 50.4592 9.62225C50.3456 9.58769 50.2567 9.55559 50.1925 9.52596L50.4073 8.60744C50.5357 8.66176 50.6987 8.72102 50.8962 8.78522C51.0987 8.84448 51.348 8.87411 51.6443 8.87411C51.9851 8.87411 52.2345 8.80991 52.3925 8.68151C52.5505 8.55312 52.6295 8.38028 52.6295 8.16299C52.6295 8.02966 52.5999 7.91855 52.5406 7.82966C52.4863 7.73583 52.4098 7.66176 52.311 7.60744C52.2122 7.54818 52.0937 7.50867 51.9554 7.48892C51.8221 7.46423 51.6789 7.45188 51.5258 7.45188H51.0962V6.56299H51.5851C51.6937 6.56299 51.7974 6.55312 51.8962 6.53336C51.9999 6.51361 52.0912 6.48151 52.1703 6.43707C52.2493 6.38769 52.311 6.32349 52.3554 6.24448C52.4048 6.16053 52.4295 6.05682 52.4295 5.93337C52.4295 5.83954 52.4098 5.75806 52.3703 5.68892C52.3308 5.61978 52.2789 5.56299 52.2147 5.51855C52.1554 5.47411 52.0838 5.44201 51.9999 5.42225C51.9209 5.39756 51.8394 5.38522 51.7554 5.38522C51.5431 5.38522 51.3456 5.41732 51.1629 5.48151C50.9851 5.54571 50.8221 5.62472 50.674 5.71855L50.2814 4.91114C50.3604 4.86176 50.4517 4.80991 50.5554 4.75559C50.6641 4.70127 50.7826 4.65188 50.911 4.60744C51.0394 4.56299 51.1752 4.52596 51.3184 4.49633C51.4666 4.4667 51.6221 4.45188 51.7851 4.45188C52.0863 4.45188 52.3456 4.48892 52.5629 4.56299C52.7851 4.63213 52.9678 4.73336 53.111 4.8667C53.2542 4.99509 53.3604 5.14818 53.4295 5.32596C53.4987 5.4988 53.5332 5.68892 53.5332 5.89633C53.5332 6.0988 53.4764 6.29633 53.3629 6.48892C53.2493 6.67657 53.0962 6.81978 52.9036 6.91855C53.1703 7.02719 53.3752 7.19016 53.5184 7.40744C53.6666 7.61978 53.7406 7.87657 53.7406 8.17781C53.7406 8.41485 53.7011 8.6346 53.6221 8.83707C53.5431 9.0346 53.4196 9.20744 53.2517 9.35559C53.0838 9.4988 52.869 9.61238 52.6073 9.69633C52.3505 9.77534 52.0443 9.81485 51.6888 9.81485Z" fill="white"/>
<defs>
<linearGradient id="paint0_linear_54_182" x1="16.6667" y1="21.2963" x2="59.2593" y2="54.6296" gradientUnits="userSpaceOnUse">
<stop stop-color="#907FF0"/>
<stop offset="1" stop-color="#C0B6FA"/>
</linearGradient>
</defs>
</svg>
