<svg width="96" height="96" viewBox="0 0 96 96" fill="none" xmlns="http://www.w3.org/2000/svg">
<path fill-rule="evenodd" clip-rule="evenodd" d="M72 57.6001H24C23.7791 57.6001 23.6 57.7792 23.6 58.0001C23.6 58.221 23.7791 58.4001 24 58.4001H72C72.2209 58.4001 72.4 58.221 72.4 58.0001C72.4 57.7792 72.2209 57.6001 72 57.6001ZM24 54.0001C21.7909 54.0001 20 55.791 20 58.0001C20 60.2092 21.7909 62.0001 24 62.0001H72C74.2091 62.0001 76 60.2092 76 58.0001C76 55.791 74.2091 54.0001 72 54.0001H24Z" fill="#FFC778"/>
<path fill-rule="evenodd" clip-rule="evenodd" d="M29.8002 62.0001C29.8002 63.2151 30.7852 64.2001 32.0002 64.2001H64.0002C65.2152 64.2001 66.2002 63.2151 66.2002 62.0001H69.8002C69.8002 65.2033 67.2034 67.8001 64.0002 67.8001H32.0002C28.7969 67.8001 26.2002 65.2033 26.2002 62.0001H29.8002Z" fill="#FFC778"/>
<path fill-rule="evenodd" clip-rule="evenodd" d="M36.2002 64.2002H47.8002V75.8002H36.2002V64.2002ZM39.8002 67.8002V72.2002H44.2002V67.8002H39.8002Z" fill="#FFC778"/>
<path fill-rule="evenodd" clip-rule="evenodd" d="M55.8002 72.2003V81.8003H52.2002V72.2003H55.8002Z" fill="#FFC778"/>
<path fill-rule="evenodd" clip-rule="evenodd" d="M43.8002 72.2003V81.8003H40.2002V72.2003H43.8002Z" fill="#FFC778"/>
<path fill-rule="evenodd" clip-rule="evenodd" d="M48.2002 64.2002H59.8002V75.8002H48.2002V64.2002ZM51.8002 67.8002V72.2002H56.2002V67.8002H51.8002Z" fill="#FFC778"/>
<path fill-rule="evenodd" clip-rule="evenodd" d="M39.8294 17.1141C45.0744 15.0161 50.9256 15.0161 56.1706 17.1141C64.5231 20.4551 70 28.5447 70 37.5406V54C70 55.1045 69.1046 56 68 56C66.8954 56 66 55.1045 66 54V37.5406C66 30.1803 61.5189 23.5616 54.685 20.828C50.3936 19.1115 45.6064 19.1115 41.315 20.828C34.4811 23.5616 30 30.1803 30 37.5406V54C30 55.1045 29.1046 56 28 56C26.8954 56 26 55.1045 26 54V37.5406C26 28.5447 31.4769 20.4551 39.8294 17.1141Z" fill="#FFC778"/>
<path fill-rule="evenodd" clip-rule="evenodd" d="M44.257 41.0844C46.6931 40.3151 49.3069 40.3151 51.743 41.0844C55.4677 42.2606 58 45.7158 58 49.6219V53.9997C58 55.1043 57.1046 55.9997 56 55.9997C54.8954 55.9997 54 55.1043 54 53.9997V49.6219C54 47.461 52.5991 45.5494 50.5384 44.8987C48.8864 44.377 47.1136 44.377 45.4616 44.8987C43.4009 45.5494 42 47.461 42 49.6219V53.9997C42 55.1043 41.1046 55.9997 40 55.9997C38.8954 55.9997 38 55.1043 38 53.9997V49.6219C38 45.7158 40.5323 42.2606 44.257 41.0844Z" fill="#FFC778"/>
</svg>
