<svg width="96" height="96" viewBox="0 0 96 96" fill="none" xmlns="http://www.w3.org/2000/svg">
<path fill-rule="evenodd" clip-rule="evenodd" d="M20 26C23.3137 26 26 28.6863 26 32V66C26 67.1045 26.8954 68 28 68H68C69.1046 68 70 67.1045 70 66V32C70 28.6863 72.6863 26 76 26V30C74.8954 30 74 30.8954 74 32V66C74 69.3137 71.3137 72 68 72H28C24.6863 72 22 69.3137 22 66V32C22 30.8954 21.1046 30 20 30V26Z" fill="#FAAFAA"/>
<path fill-rule="evenodd" clip-rule="evenodd" d="M52 43.9999V59.9999H60V43.9999H52ZM50 39.9999C48.8954 39.9999 48 40.8954 48 41.9999V61.9999C48 63.1045 48.8954 63.9999 50 63.9999H62C63.1046 63.9999 64 63.1045 64 61.9999V41.9999C64 40.8954 63.1046 39.9999 62 39.9999H50Z" fill="#FAAFAA"/>
<path fill-rule="evenodd" clip-rule="evenodd" d="M34 21.9999H58V39.9999C58 41.1045 57.1046 41.9999 56 41.9999C54.8954 41.9999 54 41.1045 54 39.9999V25.9999H38V31.9999C38 33.1045 37.1046 33.9999 36 33.9999C34.8954 33.9999 34 33.1045 34 31.9999V21.9999Z" fill="#FAAFAA"/>
<path fill-rule="evenodd" clip-rule="evenodd" d="M40 58.5263V32H32V58.5263C33.4936 62.0637 38.5064 62.0637 40 58.5263ZM35.2 57.6566C35.6363 58.0869 36.3637 58.0869 36.8 57.6566V35.2H35.2V57.6566Z" fill="#FAAFAA"/>
<path fill-rule="evenodd" clip-rule="evenodd" d="M63 27.9999C63 27.4476 63.4477 26.9999 64 26.9999L68 26.9999C68.5523 26.9999 69 27.4476 69 27.9999C69 28.5522 68.5523 28.9999 68 28.9999L64 28.9999C63.4477 28.9999 63 28.5522 63 27.9999Z" fill="#FAAFAA"/>
<path fill-rule="evenodd" clip-rule="evenodd" d="M27 27.9999C27 27.4476 27.4477 26.9999 28 26.9999L32 26.9999C32.5523 26.9999 33 27.4476 33 27.9999C33 28.5522 32.5523 28.9999 32 28.9999L28 28.9999C27.4477 28.9999 27 28.5522 27 27.9999Z" fill="#FAAFAA"/>
<path fill-rule="evenodd" clip-rule="evenodd" d="M30 30.9998C29.4477 30.9998 29 30.5521 29 29.9998L29 25.9998C29 25.4476 29.4477 24.9998 30 24.9998C30.5523 24.9998 31 25.4476 31 25.9998L31 29.9998C31 30.5521 30.5523 30.9998 30 30.9998Z" fill="#FAAFAA"/>
</svg>
