<svg width="375" height="375" viewBox="0 0 375 375" fill="none" xmlns="http://www.w3.org/2000/svg">
<path opacity="0.0714286" d="M293.124 159.048L286.587 244.816C284.903 266.909 268.322 284.982 246.46 288.554L172.405 300.651C152.41 303.918 132.52 294.274 122.699 276.55L77.6214 195.196C67.8009 177.473 70.1654 155.488 83.5302 140.256L133.029 83.8403C147.642 67.1858 171.749 62.6962 191.37 72.9751L267.542 112.879C284.524 121.775 294.582 139.928 293.124 159.048Z" stroke="url(#paint0_linear_54_242)" stroke-width="4"/>
<path opacity="0.142857" d="M295.82 202.586L256.302 278.982C246.122 298.662 223.795 308.819 202.273 303.56L129.387 285.751C109.705 280.942 95.1638 264.292 93.0467 244.141L83.3265 151.625C81.2094 131.475 91.9729 112.164 110.225 103.366L177.817 70.787C197.776 61.1666 221.725 66.4571 235.773 83.5898L290.305 150.098C302.46 164.922 304.628 185.557 295.82 202.586Z" stroke="url(#paint1_linear_54_242)" stroke-width="4"/>
<path opacity="0.214286" d="M281.293 243.724L215.078 298.6C198.021 312.736 173.504 313.358 155.747 300.105L95.6092 255.221C79.3704 243.101 72.4881 222.09 78.41 202.713L105.597 113.755C111.519 94.3779 128.969 80.8088 149.207 79.8451L224.152 76.2758C246.281 75.222 266.259 89.4527 272.498 110.714L296.718 193.249C302.117 211.647 296.053 231.491 281.293 243.724Z" stroke="url(#paint2_linear_54_242)" stroke-width="4"/>
<path opacity="0.285714" d="M251.844 275.914L169.463 300.545C148.243 306.889 125.438 297.882 114.272 278.747L76.44 213.914C66.2262 196.411 68.0996 174.377 81.1215 158.852L140.883 87.6038C153.905 72.079 175.27 66.4073 194.275 73.4303L264.668 99.4438C285.444 107.122 298.271 128.025 295.71 150.032L285.769 235.47C283.552 254.52 270.213 270.422 251.844 275.914Z" stroke="url(#paint3_linear_54_242)" stroke-width="4"/>
<path opacity="0.357143" d="M212.163 294.031L126.715 284.502C104.707 282.048 87.2369 264.85 84.4333 242.878L74.9294 168.397C72.3642 148.293 82.6978 128.742 100.752 119.539L183.576 77.3221C201.631 68.1193 223.516 71.2482 238.266 85.141L292.914 136.612C309.035 151.795 312.674 176.043 301.723 195.297L259.203 270.053C249.719 286.728 231.222 296.156 212.163 294.031Z" stroke="url(#paint4_linear_54_242)" stroke-width="4"/>
<path opacity="0.428571" d="M168.565 295.195L93.6338 253.025C74.3348 242.164 64.9719 219.509 70.9721 198.191L91.3168 125.909C96.8075 106.401 113.958 92.4426 134.174 91.0284L226.894 84.5423C247.11 83.1281 266.036 94.5629 274.187 113.116L304.39 181.863C313.297 202.138 307.177 225.876 289.577 239.318L221.241 291.51C205.996 303.153 185.282 304.602 168.565 295.195Z" stroke="url(#paint5_linear_54_242)" stroke-width="4"/>
<path opacity="0.5" d="M127.986 279.23L75.481 211.122C61.9578 193.58 62.1884 169.065 76.039 151.785L122.996 93.2044C135.67 77.3934 156.908 71.2482 176.068 77.8481L263.955 108.122C283.115 114.721 296.069 132.644 296.326 152.909L297.276 227.992C297.557 250.139 282.651 269.6 261.199 275.094L177.909 296.426C159.329 301.185 139.698 294.423 127.986 279.23Z" stroke="url(#paint6_linear_54_242)" stroke-width="4"/>
<path opacity="0.571429" d="M96.8684 248.68L75.1379 165.459C69.5406 144.024 79.3326 121.541 98.8363 111.046L164.93 75.4828C182.772 65.8823 204.72 68.5251 219.776 82.087L288.864 144.317C303.92 157.879 308.841 179.439 301.162 198.193L272.716 267.668C264.321 288.169 242.994 300.261 221.098 296.933L136.094 284.012C117.138 281.131 101.714 267.238 96.8684 248.68Z" stroke="url(#paint7_linear_54_242)" stroke-width="4"/>
<path opacity="0.642857" d="M80.153 208.396L92.6551 123.292C95.8755 101.37 113.677 84.4976 135.736 82.4605L210.452 75.5602C230.627 73.6971 249.796 84.7053 258.356 103.07L297.652 187.374C306.213 205.739 302.321 227.504 287.926 241.767L234.616 294.59C218.877 310.184 194.514 312.981 175.657 301.358L102.453 256.235C86.1333 246.176 77.366 227.367 80.153 208.396Z" stroke="url(#paint8_linear_54_242)" stroke-width="4"/>
<path opacity="0.714286" d="M80.4994 164.775L125.248 91.322C136.776 72.4003 159.757 63.8268 180.86 70.5748L252.326 93.4262C271.625 99.597 284.97 117.221 285.677 137.47L288.922 230.44C289.629 250.689 277.545 269.202 258.724 276.704L189.026 304.487C168.444 312.691 144.921 305.742 132.103 287.671L82.3405 217.52C71.2491 201.884 70.5252 181.147 80.4994 164.775Z" stroke="url(#paint9_linear_54_242)" stroke-width="4"/>
<path opacity="0.785714" d="M97.8615 124.75L167.741 74.629C185.742 61.7178 210.242 62.8079 227.031 77.267L283.894 126.239C299.248 139.463 304.648 160.904 297.389 179.821L264.066 266.663C256.807 285.58 238.453 297.899 218.198 297.448L143.184 295.778C121.036 295.286 102.1 279.696 97.359 258.051L78.9531 174.027C74.8501 155.297 82.2841 135.923 97.8615 124.75Z" stroke="url(#paint10_linear_54_242)" stroke-width="4"/>
<path opacity="0.857143" d="M129.509 94.7128L213.422 75.8944C235.036 71.0472 257.161 81.6203 266.966 101.483L300.193 168.788C309.163 186.957 305.756 208.803 291.68 223.379L227.085 290.269C213.009 304.845 191.296 309.012 172.824 300.682L104.401 269.825C84.2079 260.718 72.8691 238.976 76.959 217.206L92.8374 132.687C96.3781 113.84 110.797 98.9091 129.509 94.7128Z" stroke="url(#paint11_linear_54_242)" stroke-width="4"/>
<path opacity="0.928571" d="M170.331 79.3907L254.906 94.8585C276.689 98.8424 292.916 117.217 294.181 139.33L298.468 214.295C299.626 234.528 287.953 253.311 269.3 261.232L183.737 297.566C165.084 305.486 143.469 300.838 129.724 285.95L78.7975 230.79C63.7752 214.518 61.8354 190.077 74.1027 171.634L121.731 100.028C132.355 84.0554 151.465 75.9404 170.331 79.3907Z" stroke="url(#paint12_linear_54_242)" stroke-width="4"/>
<path opacity="0.1" d="M213.902 81.2716L285.711 128.567C304.205 140.749 311.966 164.002 304.494 184.849L279.158 255.535C272.321 274.613 254.239 287.34 233.973 287.34H141.027C120.761 287.34 102.679 274.613 95.8414 255.535L70.5061 184.849C63.0341 164.002 70.7944 140.749 89.289 128.567L161.098 81.2715C177.118 70.72 197.882 70.72 213.902 81.2716Z" stroke="url(#paint13_linear_54_242)" stroke-width="4"/>
<defs>
<linearGradient id="paint0_linear_54_242" x1="147.969" y1="116.636" x2="228.139" y2="261.211" gradientUnits="userSpaceOnUse">
<stop stop-color="#FF1CF7"/>
<stop offset="1" stop-color="#00F0FF"/>
</linearGradient>
<linearGradient id="paint1_linear_54_242" x1="178.766" y1="106.812" x2="196.055" y2="271.236" gradientUnits="userSpaceOnUse">
<stop stop-color="#FF1CF7"/>
<stop offset="1" stop-color="#00F0FF"/>
</linearGradient>
<linearGradient id="paint2_linear_54_242" x1="210.953" y1="109.808" x2="162.6" y2="267.905" gradientUnits="userSpaceOnUse">
<stop stop-color="#FF1CF7"/>
<stop offset="1" stop-color="#00F0FF"/>
</linearGradient>
<linearGradient id="paint3_linear_54_242" x1="239.411" y1="125.147" x2="133.131" y2="251.758" gradientUnits="userSpaceOnUse">
<stop stop-color="#FF1CF7"/>
<stop offset="1" stop-color="#00F0FF"/>
</linearGradient>
<linearGradient id="paint4_linear_54_242" x1="259.616" y1="150.39" x2="112.338" y2="225.403" gradientUnits="userSpaceOnUse">
<stop stop-color="#FF1CF7"/>
<stop offset="1" stop-color="#00F0FF"/>
</linearGradient>
<linearGradient id="paint5_linear_54_242" x1="268.354" y1="181.524" x2="103.488" y2="193.048" gradientUnits="userSpaceOnUse">
<stop stop-color="#FF1CF7"/>
<stop offset="1" stop-color="#00F0FF"/>
</linearGradient>
<linearGradient id="paint6_linear_54_242" x1="264.238" y1="213.598" x2="107.962" y2="159.809" gradientUnits="userSpaceOnUse">
<stop stop-color="#FF1CF7"/>
<stop offset="1" stop-color="#00F0FF"/>
</linearGradient>
<linearGradient id="paint7_linear_54_242" x1="247.921" y1="241.515" x2="125.061" y2="130.933" gradientUnits="userSpaceOnUse">
<stop stop-color="#FF1CF7"/>
<stop offset="1" stop-color="#00F0FF"/>
</linearGradient>
<linearGradient id="paint8_linear_54_242" x1="221.998" y1="260.833" x2="152.109" y2="111.013" gradientUnits="userSpaceOnUse">
<stop stop-color="#FF1CF7"/>
<stop offset="1" stop-color="#00F0FF"/>
</linearGradient>
<linearGradient id="paint9_linear_54_242" x1="190.59" y1="268.484" x2="184.818" y2="103.254" gradientUnits="userSpaceOnUse">
<stop stop-color="#FF1CF7"/>
<stop offset="1" stop-color="#00F0FF"/>
</linearGradient>
<linearGradient id="paint10_linear_54_242" x1="158.691" y1="263.249" x2="217.957" y2="108.914" gradientUnits="userSpaceOnUse">
<stop stop-color="#FF1CF7"/>
<stop offset="1" stop-color="#00F0FF"/>
</linearGradient>
<linearGradient id="paint11_linear_54_242" x1="131.396" y1="245.952" x2="246.224" y2="127.045" gradientUnits="userSpaceOnUse">
<stop stop-color="#FF1CF7"/>
<stop offset="1" stop-color="#00F0FF"/>
</linearGradient>
<linearGradient id="paint12_linear_54_242" x1="112.976" y1="219.37" x2="265.124" y2="154.812" gradientUnits="userSpaceOnUse">
<stop stop-color="#FF1CF7"/>
<stop offset="1" stop-color="#00F0FF"/>
</linearGradient>
<linearGradient id="paint13_linear_54_242" x1="106.43" y1="187.702" x2="271.698" y2="187.702" gradientUnits="userSpaceOnUse">
<stop stop-color="#FF1CF7"/>
<stop offset="1" stop-color="#00F0FF"/>
</linearGradient>
</defs>
</svg>
